<svg width="93" height="12" xmlns="http://www.w3.org/2000/svg">
    <g fill="#FFF" fill-rule="nonzero">
        <path d="M93 10.61a1.38 1.38 0 0 1-2.654.542 1.387 1.387 0 0 1 .498-1.683 1.378 1.378 0 0 1 1.744.16c.267.255.416.61.412.981zm-.188 0a1.169 1.169 0 0 0-.35-.826 1.185 1.185 0 0 0-1.678-.013l-.013.013a1.209 1.209 0 0 0 0 1.702c.46.468 1.211.473 1.678.013l.013-.013a1.17 1.17 0 0 0 .35-.868v-.008zm-.307.713h-.359l-.527-.568h-.258v.568h-.27V9.852h.499a1.96 1.96 0 0 1 .245 0 .57.57 0 0 1 .192.062c.06.03.11.077.146.134.033.06.049.128.045.196a.38.38 0 0 1-.09.259.618.618 0 0 1-.25.163l.627.657zm-.563-1.048a.226.226 0 0 0-.02-.103.171.171 0 0 0-.075-.075.307.307 0 0 0-.103-.033h-.38v.496h.207a.822.822 0 0 0 .171 0 .278.278 0 0 0 .117-.05.225.225 0 0 0 .07-.086.313.313 0 0 0 .017-.155l-.004.006zM16.574 12h11.97v-1.208h-9.807V6.41h9.402V5.2h-9.402V1.21h9.808V0h-11.97zM43.79.973C42.928.327 40.736 0 37.291 0c-2.98 0-5.046.287-6.138.854-1.093.566-1.662 1.652-1.662 3.211l-.027 1.11v.82c0 2.685.43 4.365 1.274 5.026.844.661 3.054.979 6.553.979s5.731-.34 6.553-.988c.821-.649 1.274-2.395 1.274-5.17-.018-2.578-.472-4.218-1.33-4.87zm-.735 5.016c0 2.392-.242 3.808-.722 4.21-.481.4-2.184.607-5.063.607-2.88 0-4.573-.205-5.046-.608-.473-.403-.722-1.817-.722-4.209 0-2.391.25-3.798.729-4.2.479-.4 2.18-.608 5.045-.608 2.496 0 4.1.175 4.776.517.676.343 1.003 1.161 1.003 2.426V5.99zM59.851 0H46.04v1.324h5.877V12h2.11V1.324h5.824zM66.782 0H63.84l-6.75 12h2.273l1.408-2.522h9.234L71.428 12h2.235L66.791.03l-.01-.03zm-5.375 8.388 3.952-7.176 4.003 7.173-7.955.003zM86.572 5.708c1.461-.365 2.205-1.212 2.205-2.522 0-1.31-.342-2.172-1.03-2.577C87.059.203 85.62 0 83.437 0h-7.932v12h8.774c1.847 0 3.158-.262 3.906-.774.748-.512 1.132-1.419 1.132-2.696.009-1.548-.918-2.497-2.745-2.822zm-8.978-4.497h5.803c1.424 0 2.356.118 2.77.35.415.231.616.742.616 1.527 0 .908-.235 1.5-.705 1.758-.47.259-1.555.397-3.232.397h-5.252V1.211zm9.046 9.178c-.462.262-1.473.39-2.994.39h-6.052V6.455h5.145c2.11 0 3.42.121 3.892.36.472.237.699.88.699 1.929.003.836-.23 1.39-.69 1.646zM7.024 5.992v1.184h5.739V7.9c0 1.307-.257 2.127-.742 2.433-.485.306-1.825.474-3.947.474-2.78 0-4.506-.168-5.142-.502-.636-.333-.944-1.225-.944-2.672V5.964l.02-1.559c0-1.428.288-2.333.852-2.689.564-.355 2.023-.54 4.328-.54 2.472 0 4.042.112 4.633.336.59.224.84.817.84 1.753v.31h2.021V3.1c0-1.304-.448-2.163-1.333-2.536C12.463.19 10.518 0 7.515 0 4.513 0 2.5.289 1.508.86.517 1.432 0 2.607 0 4.342v2.757c0 2.065.459 3.412 1.354 4.005.894.593 2.924.896 6.04.896 3.3 0 5.369-.253 6.153-.755.785-.502 1.137-1.672 1.186-3.553v-1.7H7.024z"/>
    </g>
</svg>
