<svg width="146" height="28" xmlns="http://www.w3.org/2000/svg">
    <g fill-rule="nonzero" fill="none">
        <path d="M5.376 20.705a28.234 28.234 0 0 1 2.202 3.248c.561 1.065.795 1.787 1.206 3.07.252.709.479.92.968.92.533 0 .775-.36.962-.916.388-1.212.692-2.137 1.172-3.01C12.83 22.33 14 20.83 15.15 19.39c.312-.408 2.326-2.783 3.233-4.658 0 0 1.114-2.059 1.114-4.934 0-2.69-1.099-4.556-1.099-4.556l-3.164.848-1.922 5.06-.475.698-.095.127-.126.158-.222.253-.318.317-1.71 1.394-4.279 2.47-.711 4.138z" fill="#34A853"/>
        <path d="M.96 14.386c1.045 2.385 3.058 4.481 4.42 6.321l7.236-8.57s-1.02 1.332-2.869 1.332a3.706 3.706 0 0 1-3.723-3.718c0-1.422.855-2.4.855-2.4L1.968 8.669.96 14.386z" fill="#FBBC04"/>
        <path d="M12.696.44c2.403.776 4.46 2.402 5.704 4.8l-5.782 6.891s.855-.994.855-2.408c0-2.122-1.787-3.707-3.717-3.707-1.826 0-2.874 1.33-2.874 1.33v-4.34L12.696.44z" fill="#4285F4"/>
        <path d="M2.286 3.486C3.72 1.768 6.246 0 9.728 0c1.69 0 2.962.443 2.962.443L6.876 7.351H2.757l-.471-3.865z" fill="#1A73E8"/>
        <path d="M.96 14.386S0 12.506 0 9.78c0-2.575 1.001-4.827 2.286-6.294L6.88 7.35.96 14.386z" fill="#EA4335"/>
        <g fill="#2C3032" fill-opacity=".6">
            <path d="M99.805 22.664V7.978h1.887l5.108 8.943h.082l5.108-8.943h1.887v14.686h-1.887v-8.718l.083-2.461h-.083l-4.594 8.06h-1.107l-4.594-8.06h-.082l.082 2.461v8.718h-1.89zm19.59.308c-1.067 0-1.96-.308-2.677-.923-.717-.616-1.077-1.429-1.077-2.441 0-1.099.423-1.952 1.272-2.574.848-.623 1.893-.934 3.132-.934 1.108 0 2.016.205 2.728.616v-.287c0-.739-.253-1.33-.758-1.774-.506-.444-1.128-.667-1.867-.667-.547 0-1.042.13-1.487.385a1.99 1.99 0 0 0-.912 1.066l-1.723-.738c.232-.602.69-1.154 1.373-1.672.683-.517 1.586-.769 2.708-.769 1.286 0 2.352.376 3.2 1.128.847.752 1.271 1.812 1.271 3.18v6.077h-1.804V21.25h-.083c-.753 1.154-1.853 1.723-3.297 1.723zm.307-1.723c.78 0 1.486-.29 2.123-.871.636-.58.954-1.264.954-2.06-.533-.439-1.334-.657-2.4-.657-.917 0-1.607.197-2.072.595-.464.397-.698.861-.698 1.394 0 .493.212.882.636 1.17.424.287.91.43 1.456.43zm11.947 1.723c-.765 0-1.453-.165-2.06-.492-.608-.328-1.064-.739-1.363-1.231h-.083l.083 1.394v4.431h-1.887v-14.48h1.805v1.394h.083c.3-.492.755-.902 1.363-1.23.607-.33 1.295-.493 2.06-.493 1.3 0 2.42.513 3.364 1.539.944 1.025 1.416 2.296 1.416 3.815 0 1.518-.473 2.79-1.416 3.815s-2.065 1.539-3.364 1.539v-.001zm-.308-1.723c.876 0 1.627-.332 2.257-.989.63-.657.943-1.542.943-2.636s-.314-1.978-.943-2.636c-.63-.657-1.382-.989-2.257-.989-.888 0-1.644.328-2.266.985-.622.657-.933 1.539-.933 2.646s.311 1.989.933 2.646c.621.656 1.377.984 2.266.984v-.01zm10.103 1.723c-1.12 0-2.047-.274-2.78-.82a4.887 4.887 0 0 1-1.61-2.052l1.682-.698c.533 1.264 1.443 1.887 2.729 1.887.588 0 1.07-.13 1.446-.385.376-.255.565-.601.565-1.025 0-.656-.459-1.101-1.375-1.333l-2.03-.492a4.833 4.833 0 0 1-1.826-.933c-.574-.458-.862-1.077-.862-1.856 0-.888.393-1.61 1.18-2.165.786-.555 1.72-.83 2.8-.83.888 0 1.68.201 2.379.604.683.388 1.212 1 1.497 1.733l-1.641.677c-.369-.889-1.135-1.333-2.297-1.333-.56 0-1.033.116-1.415.348-.382.232-.575.548-.575.944 0 .574.44.964 1.334 1.17l1.989.471c.943.219 1.64.595 2.092 1.128.45.533.677 1.135.677 1.806 0 .902-.37 1.648-1.108 2.256-.739.608-1.689.902-2.857.902l.006-.004zm-97.558-9.064h-7.74v2.297h5.494c-.27 3.22-2.95 4.594-5.48 4.594a6.034 6.034 0 0 1-6.06-6.115c0-3.477 2.691-6.155 6.066-6.155 2.605 0 4.138 1.661 4.138 1.661l1.608-1.665s-2.064-2.297-5.828-2.297c-4.794 0-8.503 4.046-8.503 8.416 0 4.282 3.49 8.459 8.625 8.459 4.517 0 7.825-3.095 7.825-7.671 0-.965-.14-1.523-.14-1.523l-.005-.001zM50.24 12.274c-3.176 0-5.452 2.483-5.452 5.379 0 2.939 2.208 5.467 5.495 5.467 2.971 0 5.405-2.27 5.405-5.405 0-3.592-2.832-5.442-5.442-5.442l-.006.001zm.031 2.13c1.563 0 3.042 1.263 3.042 3.298 0 1.991-1.474 3.291-3.05 3.291-1.73 0-3.096-1.386-3.096-3.306 0-1.878 1.35-3.282 3.104-3.282zM62.041 12.274c-3.176 0-5.452 2.483-5.452 5.379 0 2.939 2.208 5.467 5.495 5.467 2.971 0 5.405-2.27 5.405-5.405 0-3.592-2.832-5.442-5.442-5.442l-.006.001zm.032 2.13c1.562 0 3.042 1.263 3.042 3.298 0 1.991-1.475 3.291-3.05 3.291-1.731 0-3.097-1.386-3.097-3.306 0-1.878 1.35-3.282 3.104-3.282zM73.661 12.274c-2.915 0-5.207 2.554-5.207 5.42 0 3.264 2.656 5.429 5.156 5.429 1.546 0 2.367-.614 2.975-1.32v1.07c0 1.871-1.136 2.992-2.857 2.992-1.657 0-2.487-1.232-2.777-1.93l-2.084.87C69.607 26.37 71.095 28 73.746 28c2.898 0 5.108-1.825 5.108-5.66v-9.743H76.58v.92c-.699-.754-1.655-1.245-2.923-1.245l.004.002zm.211 2.127c1.43 0 2.897 1.22 2.897 3.304 0 2.119-1.464 3.286-2.929 3.286-1.554 0-3-1.262-3-3.266 0-2.088 1.501-3.325 3.032-3.325zm15.13-2.127c-2.75 0-5.06 2.187-5.06 5.417 0 3.415 2.574 5.442 5.324 5.442 2.295 0 3.704-1.256 4.543-2.38l-1.868-1.248c-.486.755-1.3 1.494-2.657 1.494-1.525 0-2.225-.835-2.66-1.644l7.273-3.023-.378-.879c-.703-1.732-2.342-3.178-4.506-3.178h-.01zm.095 2.086c.991 0 1.703.528 2.007 1.159l-4.857 2.03c-.208-1.572 1.28-3.189 2.85-3.189zm-8.628 8.45h2.389V6.82h-2.389v15.99z"/>
        </g>
    </g>
</svg>
