<svg width="187" height="36" xmlns="http://www.w3.org/2000/svg">
    <g fill-rule="nonzero" fill="none">
        <path d="M6.912 26.621a36.3 36.3 0 0 1 2.83 4.176c.723 1.369 1.024 2.297 1.551 3.947.324.911.617 1.183 1.245 1.183.686 0 .997-.463 1.237-1.178.499-1.558.89-2.747 1.507-3.87 1.212-2.17 2.718-4.097 4.197-5.95.4-.523 2.99-3.578 4.156-5.988 0 0 1.433-2.647 1.433-6.344 0-3.458-1.413-5.857-1.413-5.857l-4.069 1.09-2.47 6.506-.611.898-.123.162-.162.204-.285.325-.408.407-2.2 1.793-5.5 3.175-.915 5.321z" fill="#34A853"/>
        <path d="M1.235 18.496c1.342 3.067 3.931 5.762 5.682 8.127l9.303-11.02s-1.31 1.715-3.688 1.715a4.765 4.765 0 0 1-4.787-4.781c0-1.828 1.1-3.085 1.1-3.085L2.53 11.144l-1.295 7.352z" fill="#FBBC04"/>
        <path d="M16.324.567c3.09.996 5.734 3.087 7.333 6.17l-7.434 8.86s1.1-1.278 1.1-3.095c0-2.729-2.298-4.767-4.78-4.767-2.347 0-3.695 1.711-3.695 1.711V3.865L16.324.567z" fill="#4285F4"/>
        <path d="M2.94 4.481C4.783 2.274 8.031 0 12.507 0c2.172 0 3.808.57 3.808.57L8.841 9.45H3.545L2.94 4.482z" fill="#1A73E8"/>
        <path d="M1.235 18.496S0 16.078 0 12.574c0-3.311 1.287-6.206 2.94-8.093l5.905 4.97-7.61 9.045z" fill="#EA4335"/>
        <g fill="#FFF">
            <path d="M128.321 29.14V10.257h2.426l6.567 11.498h.106l6.567-11.498h2.426V29.14h-2.426V17.93l.106-3.165h-.106l-5.906 10.364h-1.424l-5.906-10.364h-.106l.106 3.165V29.14h-2.43zm25.186.395c-1.37 0-2.519-.395-3.44-1.186-.923-.792-1.386-1.837-1.386-3.139 0-1.413.544-2.51 1.635-3.31 1.091-.8 2.435-1.2 4.027-1.2 1.425 0 2.593.264 3.508.792v-.37c0-.95-.325-1.71-.975-2.28-.65-.571-1.45-.857-2.4-.857-.704 0-1.34.167-1.912.494a2.559 2.559 0 0 0-1.173 1.371l-2.215-.949c.299-.773.888-1.484 1.766-2.149.878-.666 2.04-.99 3.481-.99 1.653 0 3.024.485 4.114 1.451 1.09.967 1.635 2.33 1.635 4.089v7.813h-2.32v-1.794h-.106c-.968 1.483-2.383 2.214-4.24 2.214zm.395-2.214c1.002 0 1.911-.375 2.73-1.12.818-.747 1.226-1.626 1.226-2.65-.685-.563-1.714-.845-3.085-.845-1.179 0-2.067.255-2.664.766-.597.51-.897 1.107-.897 1.793 0 .633.273 1.134.817 1.503.545.37 1.17.554 1.873.554v-.001zm15.361 2.214c-.984 0-1.868-.211-2.65-.633-.78-.42-1.366-.95-1.751-1.582h-.106l.106 1.793v5.697h-2.426V16.192h2.321v1.793h.106c.387-.633.97-1.16 1.752-1.583.782-.422 1.666-.633 2.65-.633 1.67 0 3.112.66 4.325 1.978 1.213 1.32 1.82 2.954 1.82 4.906 0 1.952-.608 3.587-1.82 4.905-1.212 1.318-2.655 1.978-4.325 1.978h-.002zm-.395-2.214c1.125 0 2.09-.427 2.9-1.272s1.214-1.983 1.214-3.39c0-1.406-.405-2.543-1.213-3.388-.81-.846-1.777-1.272-2.901-1.272-1.143 0-2.115.422-2.915 1.266-.8.844-1.199 1.978-1.199 3.402 0 1.423.4 2.557 1.2 3.402.798.844 1.77 1.266 2.914 1.266v-.014zm12.989 2.214c-1.442 0-2.633-.351-3.574-1.054a6.283 6.283 0 0 1-2.07-2.638l2.162-.897c.685 1.625 1.855 2.425 3.509 2.425.756 0 1.376-.166 1.86-.494.482-.328.725-.774.725-1.318 0-.844-.59-1.416-1.768-1.714l-2.61-.633c-.827-.21-1.61-.61-2.348-1.2-.738-.588-1.107-1.384-1.107-2.385 0-1.143.505-2.07 1.516-2.784 1.01-.713 2.211-1.068 3.6-1.068 1.142 0 2.161.26 3.059.777a4.387 4.387 0 0 1 1.925 2.228l-2.11.87c-.474-1.142-1.46-1.713-2.954-1.713-.72 0-1.328.15-1.819.448-.491.298-.738.703-.738 1.213 0 .739.565 1.24 1.714 1.504l2.557.606c1.213.281 2.11.765 2.69 1.45.58.686.87 1.46.87 2.322 0 1.16-.474 2.12-1.424 2.901-.95.781-2.171 1.16-3.674 1.16l.009-.006zM56.424 17.882h-9.951v2.953h7.065c-.349 4.14-3.794 5.906-7.046 5.906A7.757 7.757 0 0 1 38.7 18.88c0-4.47 3.46-7.913 7.8-7.913 3.348 0 5.32 2.135 5.32 2.135l2.067-2.14s-2.654-2.953-7.494-2.953c-6.162 0-10.931 5.202-10.931 10.82 0 5.505 4.486 10.876 11.089 10.876 5.807 0 10.06-3.98 10.06-9.863 0-1.24-.18-1.959-.18-1.959h-.007zM64.594 15.781c-4.083 0-7.01 3.192-7.01 6.915 0 3.779 2.84 7.03 7.066 7.03 3.82 0 6.949-2.92 6.949-6.949 0-4.618-3.64-6.997-6.998-6.997l-.007.001zm.04 2.74c2.01 0 3.912 1.623 3.912 4.238 0 2.56-1.896 4.232-3.921 4.232-2.226 0-3.981-1.782-3.981-4.25 0-2.416 1.734-4.22 3.99-4.22zM79.767 15.781c-4.083 0-7.01 3.192-7.01 6.915 0 3.779 2.84 7.03 7.065 7.03 3.82 0 6.95-2.92 6.95-6.949 0-4.618-3.641-6.997-6.998-6.997l-.007.001zm.04 2.74c2.01 0 3.912 1.623 3.912 4.238 0 2.56-1.896 4.232-3.921 4.232-2.226 0-3.981-1.782-3.981-4.25 0-2.416 1.734-4.22 3.99-4.22zM94.707 15.781c-3.748 0-6.695 3.283-6.695 6.968 0 4.196 3.415 6.98 6.63 6.98 1.987 0 3.043-.79 3.824-1.696v1.375c0 2.406-1.46 3.847-3.673 3.847-2.13 0-3.198-1.584-3.57-2.482l-2.68 1.12c.951 2.01 2.865 4.107 6.273 4.107 3.727 0 6.568-2.347 6.568-7.277V16.197H98.46v1.18c-.899-.967-2.128-1.6-3.759-1.6l.006.004zm.271 2.734c1.839 0 3.725 1.569 3.725 4.249 0 2.724-1.883 4.225-3.766 4.225-1.998 0-3.857-1.623-3.857-4.2 0-2.685 1.93-4.274 3.898-4.274zm19.453-2.734c-3.535 0-6.504 2.812-6.504 6.964 0 4.392 3.308 6.997 6.843 6.997 2.95 0 4.762-1.614 5.842-3.06l-2.402-1.604c-.626.97-1.672 1.92-3.416 1.92-1.96 0-2.862-1.073-3.42-2.113l9.35-3.886-.485-1.13c-.905-2.228-3.011-4.087-5.794-4.087h-.014zm.122 2.682c1.274 0 2.19.678 2.58 1.49l-6.243 2.61c-.269-2.021 1.644-4.1 3.664-4.1h-.001zM103.46 29.327h3.07V8.767h-3.07v20.56z"/>
        </g>
    </g>
</svg>
