<svg width="96" height="34" xmlns="http://www.w3.org/2000/svg">
    <g fill="none" fill-rule="evenodd" stroke-linecap="round" stroke-linejoin="round">
        <path d="m9.193 31.821-7.877-13.64a2.357 2.357 0 0 1 0-2.357L9.193 2.178A2.361 2.361 0 0 1 11.239 1h15.765c.838.003 1.61.452 2.029 1.178l7.885 13.647c.422.729.422 1.62 0 2.357l-7.894 13.64A2.361 2.361 0 0 1 26.978 33h-15.77a2.358 2.358 0 0 1-2.034-1.178l.019-.001z" fill="#4386FA"/>
        <path d="M24.03 12.584s2.19 5.253-.796 8.231c-2.986 2.979-8.422 1.072-8.422 1.072L25.87 32.989h1.123a2.382 2.382 0 0 0 2.046-1.178l5.215-9.032L24.03 12.584z" fill="#000" opacity=".1"/>
        <path d="m26.617 23.343-2.421-2.41a.375.375 0 0 0-.089-.068 6.581 6.581 0 1 0-10.123.35 6.59 6.59 0 0 0 8.98.802c.017.031.038.06.063.086l2.421 2.42a.384.384 0 0 0 .535 0l.642-.641a.384.384 0 0 0 0-.535l-.008-.004zm-7.713-1.565a4.953 4.953 0 1 1 2.48-9.244 4.953 4.953 0 0 1-2.478 9.244h-.002zM15.74 16.56v2.046c.315.556.772 1.02 1.323 1.344v-3.395l-1.323.005zm2.472-1.705v5.53c.438.08.887.08 1.323 0v-5.53h-1.323zm3.83 3.74v-1.211h-1.323v2.552a3.653 3.653 0 0 0 1.323-1.34v-.002z" fill="#FFF"/>
        <path d="M56.07 8.085h-5.968V9.86h4.247c-.211 2.493-2.284 3.555-4.238 3.555a4.672 4.672 0 0 1-3.316-1.35 4.66 4.66 0 0 1-1.385-3.3v-.08A4.68 4.68 0 0 1 50.1 3.926a4.612 4.612 0 0 1 3.204 1.3l1.244-1.28a6.325 6.325 0 0 0-4.504-1.776 6.53 6.53 0 1 0 .093 13.051c3.482-.007 6.053-2.4 6.053-5.94a5.32 5.32 0 0 0-.11-1.179l-.01-.018zm4.916-1.281a4.143 4.143 0 0 0-4.228 4.075v.09a4.215 4.215 0 0 0 8.428.048c0-2.78-2.182-4.213-4.191-4.213h-.009zm.023 1.654c1.208 0 2.344.961 2.344 2.562s-1.14 2.544-2.357 2.544c-1.338 0-2.387-1.066-2.387-2.563s1.022-2.537 2.381-2.537l.02-.006zm9.132-1.654a4.143 4.143 0 0 0-4.216 4.075v.09a4.215 4.215 0 0 0 8.429.048c0-2.77-2.185-4.209-4.209-4.209l-.004-.004zm.026 1.654c1.208 0 2.344.961 2.344 2.562s-1.14 2.544-2.357 2.544c-1.339 0-2.387-1.066-2.387-2.563s1.022-2.537 2.38-2.537l.02-.006zm8.968-1.654c-2.242 0-4.027 1.972-4.027 4.194a4.143 4.143 0 0 0 3.988 4.2 2.77 2.77 0 0 0 2.3-1.025v.83c0 1.448-.878 2.318-2.203 2.318a2.336 2.336 0 0 1-2.147-1.492l-1.603.667c.57 1.208 1.711 2.482 3.751 2.482 2.242 0 3.956-1.412 3.956-4.373V7.06h-1.761v.705a2.967 2.967 0 0 0-2.262-.961h.008zm.163 1.637c1.105 0 2.242.944 2.242 2.562 0 1.618-1.133 2.528-2.267 2.528-1.208 0-2.319-.962-2.319-2.524 0-1.602 1.163-2.562 2.349-2.562l-.005-.004zm11.68-1.637c-2.127 0-3.908 1.691-3.908 4.19a4.058 4.058 0 0 0 4.116 4.203 4.254 4.254 0 0 0 3.523-1.842l-1.451-.961a2.34 2.34 0 0 1-2.046 1.153 2.157 2.157 0 0 1-2.056-1.281l5.617-2.332-.284-.682a3.796 3.796 0 0 0-3.498-2.447l-.013-.001zm.074 1.602a1.675 1.675 0 0 1 1.554.897L88.84 10.88c-.163-1.217.99-2.467 2.204-2.467l.008-.007zm-6.67 6.542h1.847V2.585h-1.857l.01 12.363zM43.72 29.185V21.08h2.934a2.327 2.327 0 0 1 1.653.642c.453.396.707.973.692 1.577a1.714 1.714 0 0 1-1.099 1.688v.045c.398.124.748.372.996.707.248.332.38.737.374 1.151a2.159 2.159 0 0 1-.71 1.654c-.473.43-1.095.66-1.734.641H43.72zm1.04-7.105v2.486h1.89c.348.01.684-.126.928-.374.48-.46.498-1.219.043-1.7l-.033-.033a1.197 1.197 0 0 0-.893-.375h-1.93l-.005-.004zm0 3.456v2.66h2.097a1.338 1.338 0 0 0 1.348-1.321 1.27 1.27 0 0 0-.398-.929 1.355 1.355 0 0 0-.995-.398h-2.046l-.006-.012zm6.856-3.808a.733.733 0 1 1-.214-.521.71.71 0 0 1 .215.522zm-.215 1.922v5.541H50.35V23.65h1.052zm3.751 8.168a3 3 0 0 1-.87-.119 2.822 2.822 0 0 1-.744-.32 2.532 2.532 0 0 1-.577-.523 2.148 2.148 0 0 1-.362-.641l.995-.41c.107.318.314.592.59.782.282.196.618.3.962.295.495.03.978-.156 1.326-.51.335-.388.506-.89.477-1.403v-.547h-.045c-.2.298-.475.537-.798.695-.338.17-.712.258-1.09.256a2.459 2.459 0 0 1-1.871-.85 3.077 3.077 0 0 1-.773-2.1c-.019-.772.256-1.521.77-2.097a2.438 2.438 0 0 1 1.87-.861c.379-.003.753.085 1.092.256.322.158.597.398.798.695h.045v-.778h.996v5.311c.043.773-.231 1.53-.76 2.095a2.78 2.78 0 0 1-2.02.763l-.01.011zm.036-3.398c.48.012.942-.19 1.256-.555a2.302 2.302 0 0 0 0-2.883 1.598 1.598 0 0 0-1.256-.567 1.625 1.625 0 0 0-1.255.567c-.351.398-.534.915-.51 1.444-.022.528.16 1.043.51 1.439.315.363.774.57 1.255.562v-.007zm13.566.77-.82.53-.557-.826a4.39 4.39 0 0 1-1.947.464 4.007 4.007 0 0 1-2.967-1.227 4.377 4.377 0 0 1 0-6.026 4.186 4.186 0 0 1 5.936 0 4.092 4.092 0 0 1 1.201 3 4.34 4.34 0 0 1-1.405 3.224l.559.86zm-3.318-.828c.474 0 .94-.11 1.365-.32l-.953-1.42.82-.554.938 1.415a3.12 3.12 0 0 0 .928-2.355 3.129 3.129 0 0 0-.893-2.319 2.941 2.941 0 0 0-2.208-.915 2.975 2.975 0 0 0-2.22.915 3.488 3.488 0 0 0 0 4.638c.58.608 1.39.943 2.23.922l-.007-.007zm10.09.821h-.998v-.767h-.045a1.85 1.85 0 0 1-.73.682c-.314.177-.667.27-1.026.272a2.055 2.055 0 0 1-1.57-.583 2.315 2.315 0 0 1-.544-1.659v-3.485h1.04v3.41c.024.91.479 1.364 1.364 1.364.406 0 .788-.186 1.038-.506.281-.338.43-.767.42-1.208v-3.065h1.04v5.541l.01.004zm3.703.183a2.66 2.66 0 0 1-2.016-.839 2.967 2.967 0 0 1-.79-2.118 3.018 3.018 0 0 1 .773-2.11 2.77 2.77 0 0 1 3.937-.045c.525.624.788 1.43.73 2.242v.113h-4.37c-.006.493.19.968.544 1.313a1.756 1.756 0 0 0 2.809-.497l.937.452a2.788 2.788 0 0 1-1.034 1.1c-.457.265-.978.4-1.506.39l-.014-.001zm-1.666-3.623h3.18a1.39 1.39 0 0 0-.472-.962 1.69 1.69 0 0 0-1.137-.378c-.37-.008-.731.121-1.013.362-.29.253-.486.597-.56.974l.002.004zm6.288 3.44h-1.04v-5.54h.995v.905h.046c.124-.314.35-.579.64-.752.284-.196.618-.307.962-.32.263-.006.525.04.77.138l-.32 1.01a1.569 1.569 0 0 0-.612-.08 1.35 1.35 0 0 0-1.025.477c-.282.3-.438.696-.436 1.108v3.069l.02-.015zm8.144-5.54-3.47 8.008h-1.077l1.282-2.796-2.274-5.211h1.134l1.654 3.988h.023l1.602-3.988h1.126v-.002z" fill="#767677"/>
    </g>
</svg>
