<svg width="20" height="20" xmlns="http://www.w3.org/2000/svg">
    <g transform="translate(-8 -2)" fill="none" fill-rule="evenodd">
        <path d="M23 15.433c-.633 0-1.2.25-1.633.642l-5.942-3.458c.042-.192.075-.384.075-.584 0-.2-.033-.391-.075-.583L21.3 8.025A2.49 2.49 0 0 0 23 8.7c1.383 0 2.5-1.117 2.5-2.5S24.383 3.7 23 3.7a2.497 2.497 0 0 0-2.5 2.5c0 .2.033.392.075.583L14.7 10.208a2.49 2.49 0 0 0-1.7-.675 2.497 2.497 0 0 0-2.5 2.5c0 1.384 1.117 2.5 2.5 2.5a2.49 2.49 0 0 0 1.7-.675l5.933 3.467a2.351 2.351 0 0 0-.066.542A2.436 2.436 0 0 0 23 20.3a2.436 2.436 0 0 0 2.433-2.433A2.436 2.436 0 0 0 23 15.433zm0-10.066c.458 0 .833.375.833.833a.836.836 0 0 1-.833.833.836.836 0 0 1-.833-.833c0-.458.375-.833.833-.833zm-10 7.5a.836.836 0 0 1-.833-.834c0-.458.375-.833.833-.833.458 0 .833.375.833.833a.836.836 0 0 1-.833.834zm10 5.85a.836.836 0 0 1-.833-.834c0-.458.375-.833.833-.833.458 0 .833.375.833.833a.836.836 0 0 1-.833.834z" fill="#2C3032"/>
    </g>
</svg>
