<svg width="20" height="20" xmlns="http://www.w3.org/2000/svg">
    <g transform="translate(-8 -2)" fill="none" fill-rule="evenodd">
        <path d="M17.167 17h1.666v-1.667h-1.666V17zM18 3.667A8.336 8.336 0 0 0 9.667 12c0 4.6 3.733 8.333 8.333 8.333S26.333 16.6 26.333 12 22.6 3.667 18 3.667zm0 15A6.676 6.676 0 0 1 11.333 12 6.676 6.676 0 0 1 18 5.333 6.676 6.676 0 0 1 24.667 12 6.676 6.676 0 0 1 18 18.667zM18 7a3.332 3.332 0 0 0-3.333 3.333h1.666c0-.916.75-1.666 1.667-1.666s1.667.75 1.667 1.666c0 1.667-2.5 1.459-2.5 4.167h1.666c0-1.875 2.5-2.083 2.5-4.167A3.332 3.332 0 0 0 18 7z" fill="#2C3032"/>
    </g>
</svg>
